<svg width="35" height="35" viewBox="0 0 35 35" fill="none" xmlns="http://www.w3.org/2000/svg">
<path d="M17.5 32.0833C9.44585 32.0833 2.91667 25.5541 2.91667 17.5C2.91667 9.44584 9.44585 2.91666 17.5 2.91666C25.5542 2.91666 32.0833 9.44584 32.0833 17.5C32.0745 25.5505 25.5505 32.0745 17.5 32.0833ZM17.5 5.83332C11.0567 5.83332 5.83333 11.0567 5.83333 17.5C5.83333 23.9433 11.0567 29.1667 17.5 29.1667C23.9433 29.1667 29.1667 23.9433 29.1667 17.5C29.1594 11.0597 23.9403 5.84056 17.5 5.83332ZM17.5 24.7917L10.2083 17.5L12.2646 15.4437L16.0417 19.2062V10.2083H18.9583V19.2062L22.7354 15.4437L24.7917 17.5L17.5 24.7917Z" fill="#202020"/>
</svg>
