<svg width="25" height="24" viewBox="0 0 25 24" fill="none" xmlns="http://www.w3.org/2000/svg">
<path d="M24.5256 7.91981L13.0999 0.845065C12.7099 0.622165 12.2937 0.620124 11.9001 0.845065L0.474316 7.91981C0.181348 8.10117 0 8.42515 0 8.74905V15.8237C0 16.1477 0.181348 16.4716 0.474365 16.653L11.9001 23.7288C12.2901 23.9517 12.7063 23.9537 13.0999 23.7288L24.5257 16.653C24.8187 16.4717 25 16.1477 25 15.8237V8.74905C25 8.42515 24.8187 8.10117 24.5256 7.91981ZM13.5742 3.54013L21.9866 8.74905L18.2338 11.0814L13.5742 8.19187V3.54013ZM11.4258 3.54013V8.19187L6.76616 11.0814L3.01338 8.74905L11.4258 3.54013ZM2.14844 10.6149L4.84097 12.2864L2.14844 13.9579V10.6149ZM11.4258 21.0327L3.01338 15.8238L6.76616 13.4914L11.4258 16.381V21.0327ZM12.5 14.6447L8.70532 12.2864L12.5 9.92817L16.2947 12.2864L12.5 14.6447ZM13.5742 21.0327V16.381L18.2338 13.4914L21.9866 15.8238L13.5742 21.0327ZM22.8516 13.9579L20.159 12.2864L22.8516 10.6149V13.9579Z" fill="#A8B2D1"/>
</svg>
