<svg width="25" height="23" viewBox="0 0 25 23" fill="none" xmlns="http://www.w3.org/2000/svg">
<path d="M8.10059 18.105C8.10059 18.1957 7.98828 18.2682 7.84668 18.2682C7.68555 18.2818 7.57324 18.2093 7.57324 18.105C7.57324 18.0143 7.68555 17.9417 7.82715 17.9417C7.97363 17.9281 8.10059 18.0007 8.10059 18.105ZM6.58203 17.9009C6.54785 17.9916 6.64551 18.0959 6.79199 18.1231C6.91895 18.1684 7.06543 18.1231 7.09473 18.0324C7.12402 17.9417 7.03125 17.8374 6.88477 17.7966C6.75781 17.7648 6.61621 17.8102 6.58203 17.9009ZM8.74023 17.8238C8.59863 17.8555 8.50098 17.9417 8.51562 18.046C8.53027 18.1367 8.65723 18.1957 8.80371 18.1639C8.94531 18.1322 9.04297 18.046 9.02832 17.9553C9.01367 17.8691 8.88184 17.8102 8.74023 17.8238ZM11.9531 0.445312C5.18066 0.445312 0 5.22076 0 11.5109C0 16.5404 3.4082 20.8442 8.27637 22.3589C8.90137 22.4632 9.12109 22.1049 9.12109 21.8101C9.12109 21.529 9.10645 19.978 9.10645 19.0256C9.10645 19.0256 5.68848 19.7058 4.9707 17.6741C4.9707 17.6741 4.41406 16.3544 3.61328 16.0143C3.61328 16.0143 2.49512 15.3023 3.69141 15.3159C3.69141 15.3159 4.90723 15.4066 5.57617 16.4859C6.64551 18.2365 8.4375 17.7331 9.13574 17.4338C9.24805 16.7082 9.56543 16.2048 9.91699 15.9054C7.1875 15.6243 4.43359 15.2569 4.43359 10.8942C4.43359 9.64701 4.80469 9.02117 5.58594 8.22299C5.45898 7.92821 5.04395 6.71281 5.71289 5.14367C6.7334 4.84889 9.08203 6.36814 9.08203 6.36814C10.0586 6.11418 11.1084 5.98266 12.1484 5.98266C13.1885 5.98266 14.2383 6.11418 15.2148 6.36814C15.2148 6.36814 17.5635 4.84435 18.584 5.14367C19.2529 6.71734 18.8379 7.92821 18.7109 8.22299C19.4922 9.02571 19.9707 9.65155 19.9707 10.8942C19.9707 15.2705 17.0947 15.6197 14.3652 15.9054C14.8145 16.2637 15.1953 16.944 15.1953 18.0097C15.1953 19.538 15.1807 21.4292 15.1807 21.8011C15.1807 22.0958 15.4053 22.4541 16.0254 22.3498C20.9082 20.8442 24.2188 16.5404 24.2188 11.5109C24.2188 5.22076 18.7256 0.445312 11.9531 0.445312ZM4.74609 16.0868C4.68262 16.1322 4.69727 16.2365 4.78027 16.3227C4.8584 16.3952 4.9707 16.427 5.03418 16.368C5.09766 16.3227 5.08301 16.2184 5 16.1322C4.92188 16.0596 4.80957 16.0279 4.74609 16.0868ZM4.21875 15.7195C4.18457 15.7785 4.2334 15.851 4.33105 15.8964C4.40918 15.9417 4.50684 15.9281 4.54102 15.8646C4.5752 15.8057 4.52637 15.7331 4.42871 15.6878C4.33105 15.6605 4.25293 15.6741 4.21875 15.7195ZM5.80078 17.334C5.72266 17.393 5.75195 17.529 5.86426 17.6152C5.97656 17.7195 6.11816 17.7331 6.18164 17.6605C6.24512 17.6016 6.21582 17.4655 6.11816 17.3793C6.01074 17.275 5.86426 17.2614 5.80078 17.334ZM5.24414 16.6673C5.16602 16.7127 5.16602 16.8306 5.24414 16.9349C5.32227 17.0392 5.4541 17.0846 5.51758 17.0392C5.5957 16.9803 5.5957 16.8623 5.51758 16.758C5.44922 16.6537 5.32227 16.6084 5.24414 16.6673Z" fill="#A8B2D1"/>
</svg>
