<svg width="22" height="21" viewBox="0 0 22 21" fill="none" xmlns="http://www.w3.org/2000/svg">
<path d="M10.946 5.24513C7.84058 5.24513 5.33569 7.57163 5.33569 10.456C5.33569 13.3403 7.84058 15.6668 10.946 15.6668C14.0515 15.6668 16.5564 13.3403 16.5564 10.456C16.5564 7.57163 14.0515 5.24513 10.946 5.24513ZM10.946 13.8437C8.93921 13.8437 7.29858 12.3244 7.29858 10.456C7.29858 8.58749 8.93433 7.06824 10.946 7.06824C12.9578 7.06824 14.5935 8.58749 14.5935 10.456C14.5935 12.3244 12.9529 13.8437 10.946 13.8437ZM18.0945 5.03198C18.0945 5.70771 17.5085 6.24739 16.7859 6.24739C16.0584 6.24739 15.4773 5.70318 15.4773 5.03198C15.4773 4.36079 16.0632 3.81658 16.7859 3.81658C17.5085 3.81658 18.0945 4.36079 18.0945 5.03198ZM21.8103 6.26553C21.7273 4.63743 21.3269 3.19527 20.0427 2.00708C18.7634 0.818882 17.2107 0.447005 15.4578 0.365373C13.6511 0.270136 8.23608 0.270136 6.42944 0.365373C4.6814 0.44247 3.12866 0.814347 1.84448 2.00254C0.560303 3.19074 0.164795 4.63289 0.0769043 6.26099C-0.0256348 7.93898 -0.0256348 12.9684 0.0769043 14.6464C0.159912 16.2745 0.560303 17.7166 1.84448 18.9048C3.12866 20.093 4.67651 20.4649 6.42944 20.5465C8.23608 20.6418 13.6511 20.6418 15.4578 20.5465C17.2107 20.4694 18.7634 20.0976 20.0427 18.9048C21.322 17.7166 21.7224 16.2745 21.8103 14.6464C21.9128 12.9684 21.9128 7.94351 21.8103 6.26553ZM19.4763 16.4468C19.0955 17.3357 18.3582 18.0205 17.3962 18.3788C15.9558 18.9094 12.5378 18.7869 10.946 18.7869C9.35425 18.7869 5.9314 18.9048 4.49585 18.3788C3.53882 18.025 2.80151 17.3402 2.41577 16.4468C1.84448 15.109 1.97632 11.9344 1.97632 10.456C1.97632 8.97751 1.84937 5.79841 2.41577 4.4651C2.79663 3.57622 3.53394 2.89142 4.49585 2.53315C5.93628 2.00254 9.35425 2.12499 10.946 2.12499C12.5378 2.12499 15.9607 2.00708 17.3962 2.53315C18.3533 2.88688 19.0906 3.57168 19.4763 4.4651C20.0476 5.80295 19.9158 8.97751 19.9158 10.456C19.9158 11.9344 20.0476 15.1135 19.4763 16.4468Z" fill="#A8B2D1"/>
</svg>
