<svg width="22" height="21" viewBox="0 0 22 21" fill="none" xmlns="http://www.w3.org/2000/svg">
<path d="M4.89648 20.8424H0.361328V7.27793H4.89648V20.8424ZM2.62646 5.42762C1.17627 5.42762 0 4.31198 0 2.96506C1.03799e-08 2.31808 0.276716 1.69761 0.769274 1.24013C1.26183 0.782645 1.92988 0.525635 2.62646 0.525635C3.32305 0.525635 3.9911 0.782645 4.48366 1.24013C4.97621 1.69761 5.25293 2.31808 5.25293 2.96506C5.25293 4.31198 4.07617 5.42762 2.62646 5.42762ZM21.8701 20.8424H17.3447V14.2393C17.3447 12.6656 17.3105 10.6475 14.9868 10.6475C12.6289 10.6475 12.2676 12.3572 12.2676 14.1259V20.8424H7.73731V7.27793H12.0869V9.12825H12.1504C12.7559 8.0625 14.2349 6.9378 16.4414 6.9378C21.0312 6.9378 21.875 9.74502 21.875 13.3912V20.8424H21.8701Z" fill="#A8B2D1"/>
</svg>
