<svg width="35" height="35" viewBox="0 0 35 35" fill="none" xmlns="http://www.w3.org/2000/svg">
<path d="M29.5312 21.875H27.3438C27.0537 21.875 26.7755 21.9902 26.5704 22.1954C26.3652 22.4005 26.25 22.6787 26.25 22.9688V30.625H4.375V8.75H14.2188C14.5088 8.75 14.787 8.63477 14.9921 8.42965C15.1973 8.22453 15.3125 7.94633 15.3125 7.65625V5.46875C15.3125 5.17867 15.1973 4.90047 14.9921 4.69535C14.787 4.49023 14.5088 4.375 14.2188 4.375H3.28125C2.41101 4.375 1.57641 4.7207 0.961056 5.33606C0.345702 5.95141 0 6.78601 0 7.65625L0 31.7188C0 32.589 0.345702 33.4236 0.961056 34.0389C1.57641 34.6543 2.41101 35 3.28125 35H27.3438C28.214 35 29.0486 34.6543 29.6639 34.0389C30.2793 33.4236 30.625 32.589 30.625 31.7188V22.9688C30.625 22.6787 30.5098 22.4005 30.3046 22.1954C30.0995 21.9902 29.8213 21.875 29.5312 21.875ZM33.3594 0H24.6094C23.1485 0 22.4185 1.77119 23.4473 2.80273L25.8897 5.24521L9.22852 21.9003C9.07557 22.0527 8.95421 22.2338 8.8714 22.4332C8.7886 22.6327 8.74597 22.8465 8.74597 23.0624C8.74597 23.2783 8.7886 23.4921 8.8714 23.6916C8.95421 23.891 9.07557 24.0721 9.22852 24.2245L10.7782 25.7715C10.9306 25.9244 11.1118 26.0458 11.3112 26.1286C11.5106 26.2114 11.7244 26.254 11.9403 26.254C12.1563 26.254 12.3701 26.2114 12.5695 26.1286C12.7689 26.0458 12.95 25.9244 13.1024 25.7715L29.7555 9.11367L32.1973 11.5527C33.2227 12.5781 35 11.8604 35 10.3906V1.64062C35 1.2055 34.8271 0.788205 34.5195 0.480528C34.2118 0.172851 33.7945 0 33.3594 0Z" fill="#A8B2D1"/>
</svg>
