<svg width="25" height="19" viewBox="0 0 25 19" fill="none" xmlns="http://www.w3.org/2000/svg">
<path d="M22.4302 4.6999C22.446 4.90615 22.446 5.11245 22.446 5.31871C22.446 11.6098 17.2906 18.8586 7.86802 18.8586C4.96509 18.8586 2.26841 18.0777 0 16.7223C0.412451 16.7665 0.808984 16.7812 1.2373 16.7812C3.63257 16.7812 5.83755 16.0298 7.59834 14.748C5.3458 14.7038 3.45811 13.3336 2.80771 11.4478C3.125 11.4919 3.44224 11.5214 3.77539 11.5214C4.2354 11.5214 4.69546 11.4624 5.12373 11.3594C2.77603 10.9173 1.01519 9.00202 1.01519 6.6889V6.62999C1.69727 6.98359 2.49048 7.20458 3.33115 7.23401C1.95107 6.37947 1.04692 4.92089 1.04692 3.27075C1.04692 2.38677 1.30068 1.57644 1.74487 0.869241C4.26709 3.75696 8.05835 5.64279 12.3096 5.84909C12.2303 5.49549 12.1827 5.12719 12.1827 4.75885C12.1827 2.1363 14.4669 0 17.3064 0C18.7816 0 20.1141 0.574596 21.05 1.50279C22.208 1.29654 23.3184 0.898719 24.302 0.353601C23.9212 1.45862 23.1122 2.38682 22.0494 2.97611C23.0805 2.87303 24.0799 2.60777 24.9999 2.23947C24.302 3.18236 23.4295 4.02213 22.4302 4.6999Z" fill="#A8B2D1"/>
</svg>
